<?xml version="1.0" encoding="utf-8"?>
<!-- Generator: Adobe Illustrator 21.0.0, SVG Export Plug-In . SVG Version: 6.00 Build 0)  -->
<svg version="1.1" id="Layer_1" xmlns="http://www.w3.org/2000/svg" xmlns:xlink="http://www.w3.org/1999/xlink" x="0px" y="0px"
	 viewBox="0 0 512 512" style="enable-background:new 0 0 512 512;" xml:space="preserve">
<style type="text/css">
	.st0{fill:#333333;}
</style>
<path class="st0" d="M446.9,66.9c-29.5-29.4-77.4-29.4-106.8,0L72.7,334.4c-29.5,29.4-29.5,77.4,0,106.8
	c14.2,14.2,33.2,22.1,53.4,22.1s39.2-7.8,53.4-22.1l267.4-267.4c14.2-14.2,22.1-33.2,22.1-53.4S461.2,81.2,446.9,66.9z M421.1,147.9
	L295.1,273.9l-54.8-55.4L366,92.8c7.6-7.6,17.6-11.4,27.6-11.4c10,0,20,3.8,27.6,11.4c7.3,7.3,11.3,17.1,11.3,27.6
	S428.4,140.6,421.1,147.9z"/>
</svg>
