<?xml version="1.0" encoding="utf-8"?>
<!-- Generator: Adobe Illustrator 21.0.0, SVG Export Plug-In . SVG Version: 6.00 Build 0)  -->
<svg version="1.1" id="Layer_1" xmlns="http://www.w3.org/2000/svg" xmlns:xlink="http://www.w3.org/1999/xlink" x="0px" y="0px"
	 viewBox="0 0 512 512" style="enable-background:new 0 0 512 512;" xml:space="preserve">
<style type="text/css">
	.st0{fill:#333333;}
</style>
<g>
	<path class="st0" d="M399.4,382.2c-0.5,46-36.3,73.3-79.1,64.6c-9.6-1.9-19.1-4.5-28.5-7.4c-27.4-8.4-54.4-8.2-82,0
		c-15.1,4.5-31,8.4-46.7,8.7c-37.5,0.6-64.4-35.5-57.3-74.6c4.3-23.7,17.2-42.3,33.8-59.3c13.3-13.6,25.5-28.3,37.6-43
		c8.8-10.7,16.5-22.3,25.2-33.2c30.5-38.1,81.2-27.1,102.4,1.2c6.7,9,13.2,18.3,19.3,27.8c11.4,17.9,24.6,34.1,40.3,48.6
		C385.1,334.7,398.8,357.7,399.4,382.2z"/>
	<path class="st0" d="M375.6,120.8c-1.1,26.2-7.7,46.8-23.5,63.5c-12.5,13.3-27.5,21.6-46.4,17c-18.9-4.6-28.9-18.8-33.4-36.4
		c-7.8-30.6-1.2-58.7,19.6-82.5c11.9-13.6,27-22.1,46.1-17.8c19.5,4.4,29.1,18.8,34.3,36.6C374.5,108.6,374.9,116.5,375.6,120.8z"/>
	<path class="st0" d="M236.3,138.1c-0.6,18.7-4,32.9-13.2,45.1c-14.1,18.7-36.5,22.6-56.1,9.8c-33.2-21.5-43.8-77.7-20.7-110
		c15.3-21.3,41.6-24.5,62.1-7C228.6,93.3,235.9,116.1,236.3,138.1z"/>
	<path class="st0" d="M466,216.2c-0.3,29.5-20.7,59.2-46.8,68c-24.5,8.2-47.3-4.4-53.4-29.5c-7.5-31.1,11-68.7,40.2-81.6
		C437.6,159,466.3,179.7,466,216.2z"/>
	<path class="st0" d="M143.9,238.3c-0.4,4.1-0.4,7.9-1.1,11.6c-6.2,34.7-39.7,48.2-67.4,26.5c-24.1-18.9-33.8-44.4-27.6-74.6
		c6.2-30.3,36.2-42.7,62.3-26.1C132.9,190.3,142.8,212.2,143.9,238.3z"/>
</g>
</svg>
