<?xml version="1.0" encoding="utf-8"?>
<!-- Generator: Adobe Illustrator 21.0.0, SVG Export Plug-In . SVG Version: 6.00 Build 0)  -->
<svg version="1.1" id="Layer_1" xmlns="http://www.w3.org/2000/svg" xmlns:xlink="http://www.w3.org/1999/xlink" x="0px" y="0px"
	 viewBox="0 0 512 512" style="enable-background:new 0 0 512 512;" xml:space="preserve">
<style type="text/css">
	.st0{fill:#333333;}
</style>
<path class="st0" d="M481.3,144.6c-10.7,19.3-19.7,19.1-43.3-1.1c-17,17.1-34,34.2-52.1,52.4c14.5,14.2,29.4,28.6,43.9,43.3
	c8.5,8.6,8.6,20.1,0.8,27.8c-7.5,7.4-18.4,7.3-27.1-0.4c-2.8-2.4-5.4-5-7.8-7.8c-3.8-4.2-7.3-8.7-11.3-13.5c-4.3,4-6.9,6.5-9.5,9
	c-54.1,54.1-108.2,108.2-162.3,162.2c-14.9,14.9-22.8,14.8-37.9-0.4c-8.2-8.3-16.1-16.9-25.7-27c-10.6,11.2-19.8,21.3-29.4,31.1
	c-17.4,17.7-35,35.2-52.7,52.6c-4.5,4.4-9.7,8-14.5,12c-8.1,0-16.1,0-24.2,0c0-8.1,0-16.1,0-24.2c4-4.9,7.6-10.1,12-14.5
	c27-27.1,54.2-53.9,82.4-81.9c-9.2-9.3-17.9-17.9-26.5-26.6C82.1,323.5,82,315.2,96,301.2C150.1,247.1,204.1,193,258.3,139
	c2.6-2.6,5.8-4.6,10.4-8.2c-7.7-7.2-14.1-13-20.1-19c-9.7-9.8-10.5-21-2.3-29.3c8.2-8.3,19.2-7.6,29.2,2.4
	c14,14,27.7,28.2,40.9,41.7c18-17.9,35.3-35.1,52.6-52.4c-19.4-22.2-19.7-31.7-0.3-42.2c3.4,0,6.7,0,10.1,0
	c4.5,3.9,9.3,7.5,13.5,11.6c25.9,25.8,51.8,51.7,77.5,77.6c4.2,4.2,7.8,8.9,11.7,13.4C481.3,137.9,481.3,141.3,481.3,144.6z
	 M133.9,318.5c20.5,20.5,40.8,40.8,60.5,60.6c52.9-52.9,106.4-106.5,159.3-159.4c-20-20-40.5-40.5-60.2-60.1
	c-7.6,7.2-15.8,14.9-25.8,24.2c5.7,4.9,11.4,9.1,16.2,14.1c8.4,8.7,8.3,20.3,0.5,27.8c-7.8,7.4-18.4,7.3-27-0.9
	c-5.3-5-9.9-10.7-14.6-15.7c-6.3,5.9-11.2,10.4-18.1,16.8c6,5.1,11.9,9.1,16.7,14.1c8.5,8.8,8.6,20.2,0.8,27.8
	c-7.8,7.7-18.8,7.4-27.8-1.3c-5-4.8-9.3-10.4-14.2-15.9c-6.3,6.2-11,10.9-17.7,17.4c5.8,5,11.5,9.1,16.3,14.1
	c8.6,8.8,8.8,20,1.1,27.8c-7.7,7.8-18.8,7.6-27.8-1c-5-4.8-9.5-10.2-14.2-15.4C149,303.2,141.1,311.2,133.9,318.5z M409.3,115.5
	c-3.5-3.9-7.4-8.4-10.2-11.5c-17.5,17.6-34.7,34.7-50.1,50.2c2.7,3.8,6.2,8.7,9,12.6C375.7,149.1,392.7,132.1,409.3,115.5z"/>
</svg>
